<?xml version="1.0" encoding="UTF-8" standalone="no"?>
<svg
   xmlns:dc="http://purl.org/dc/elements/1.1/"
   xmlns:cc="http://creativecommons.org/ns#"
   xmlns:rdf="http://www.w3.org/1999/02/22-rdf-syntax-ns#"
   xmlns:svg="http://www.w3.org/2000/svg"
   xmlns="http://www.w3.org/2000/svg"
   xmlns:sodipodi="http://sodipodi.sourceforge.net/DTD/sodipodi-0.dtd"
   xmlns:inkscape="http://www.inkscape.org/namespaces/inkscape"
   id="svg"
   width="32"
   height="32"
   version="1.1"
   viewBox="0 0 32 32"
   sodipodi:docname="user.svg"
   inkscape:version="0.92.2 2405546, 2018-03-11">
  <metadata
     id="metadata339">
    <rdf:RDF>
      <cc:Work
         rdf:about="">
        <dc:format>image/svg+xml</dc:format>
        <dc:type
           rdf:resource="http://purl.org/dc/dcmitype/StillImage" />
      </cc:Work>
    </rdf:RDF>
  </metadata>
  <defs
     id="defs337" />
  <sodipodi:namedview
     pagecolor="#ffffff"
     bordercolor="#666666"
     borderopacity="1"
     objecttolerance="10"
     gridtolerance="10"
     guidetolerance="10"
     inkscape:pageopacity="0"
     inkscape:pageshadow="2"
     inkscape:window-width="1366"
     inkscape:window-height="710"
     id="namedview335"
     showgrid="false"
     inkscape:zoom="2.6074563"
     inkscape:cx="109.35122"
     inkscape:cy="-30.728363"
     inkscape:window-x="0"
     inkscape:window-y="28"
     inkscape:window-maximized="1"
     inkscape:current-layer="svg" />
  <g
     id="22-22-user-identity"
     transform="translate(0,-22)">
    <rect
       style="opacity:0.00100002"
       width="22"
       height="22"
       x="0"
       y="0"
       id="rect2" />
    <path
       style="fill:#22252a"
       d="m 11,3 c -4.432,0 -8,3.568 -8,8 0,4.432 3.568,8 8,8 4.432,0 8,-3.568 8,-8 0,-4.432 -3.568,-8 -8,-8 z m 0,3 c 1.104533,0 2,0.8954667 2,2 0,1.1044 -0.8956,2 -2,2 C 9.8956,10 9,9.1044 9,8 9,6.8956 9.8956,6 11,6 Z m 0,5 c 3.9992,-0.0015 4,2.460938 4,2.460938 v 1 C 15,14.460937 14.261543,16 11,16 7.7384568,16 7,14.460938 7,14.460938 v -1 C 7,13.460937 7.0003998,11.0023 11,11 Z"
       id="path4" />
  </g>
  <g
     id="user-identity">
    <rect
       style="opacity:0.00100002"
       width="32"
       height="32"
       x="0"
       y="0"
       rx="1.058"
       ry="1.971"
       id="rect7" />
    <g
       transform="translate(0,-0.5)"
       id="g27">
      <circle
         style="opacity:0.2;fill:#00100f"
         cx="16"
         cy="17"
         r="14"
         id="circle9" />
      <circle
         style="fill:#009587"
         cx="16"
         cy="16"
         r="14"
         id="circle11" />
      <g
         style="opacity:0.2"
         transform="translate(0,1)"
         id="g17">
        <path
           d="m 16,6 c -2.2096,0 -4,1.7912 -4,4 0,2.2088 1.7904,4 4,4 2.2096,0 4,-1.7912 4,-4 0,-2.2088 -1.7904,-4 -4,-4 z"
           id="path13" />
        <path
           d="m 16,16.000001 c -6.9993,0.0042 -7,4.430769 -7,4.430769 v 1.8 c 0,0 1.292299,2.76923 7,2.76923 5.707701,0 7,-2.76923 7,-2.76923 v -1.8 c 0,0 0,-4.433538 -6.9986,-4.430769 z"
           id="path15" />
      </g>
      <g
         id="g23">
        <path
           style="fill:#ffffff"
           d="m 16,6 c -2.2096,0 -4,1.7912 -4,4 0,2.2088 1.7904,4 4,4 2.2096,0 4,-1.7912 4,-4 0,-2.2088 -1.7904,-4 -4,-4 z"
           id="path19" />
        <path
           style="fill:#ffffff"
           d="m 16,16.000001 c -6.9993,0.0042 -7,4.430769 -7,4.430769 v 1.8 c 0,0 1.292299,2.76923 7,2.76923 5.707701,0 7,-2.76923 7,-2.76923 v -1.8 c 0,0 0,-4.433538 -6.9986,-4.430769 z"
           id="path21" />
      </g>
      <path
         style="opacity:0.2;fill:#ffffff"
         d="M 16,2 A 14,14 0 0 0 2,16 14,14 0 0 0 2.0214844,16.585938 14,14 0 0 1 16,3 14,14 0 0 1 29.978516,16.414062 14,14 0 0 0 30,16 14,14 0 0 0 16,2 Z"
         id="path25" />
    </g>
  </g>
  <g
     id="user-busy"
     transform="translate(98,4.5)">
    <rect
       style="opacity:0.00100002"
       width="32"
       height="32"
       x="-66"
       y="-4.5"
       rx="1.058"
       ry="1.971"
       id="rect30" />
    <g
       transform="translate(-66,-5)"
       id="g50">
      <circle
         style="opacity:0.2;fill:#00100f"
         cx="16"
         cy="17"
         r="14"
         id="circle32" />
      <circle
         style="fill:#009587"
         cx="16"
         cy="16"
         r="14"
         id="circle34" />
      <g
         style="opacity:0.2"
         transform="translate(0,1)"
         id="g40">
        <path
           d="m 16,6 c -2.2096,0 -4,1.7912 -4,4 0,2.2088 1.7904,4 4,4 2.2096,0 4,-1.7912 4,-4 0,-2.2088 -1.7904,-4 -4,-4 z"
           id="path36" />
        <path
           d="m 16,16.000001 c -6.9993,0.0042 -7,4.430769 -7,4.430769 v 1.8 c 0,0 1.292299,2.76923 7,2.76923 5.707701,0 7,-2.76923 7,-2.76923 v -1.8 c 0,0 0,-4.433538 -6.9986,-4.430769 z"
           id="path38" />
      </g>
      <g
         id="g46">
        <path
           style="fill:#ffffff"
           d="m 16,6 c -2.2096,0 -4,1.7912 -4,4 0,2.2088 1.7904,4 4,4 2.2096,0 4,-1.7912 4,-4 0,-2.2088 -1.7904,-4 -4,-4 z"
           id="path42" />
        <path
           style="fill:#ffffff"
           d="m 16,16.000001 c -6.9993,0.0042 -7,4.430769 -7,4.430769 v 1.8 c 0,0 1.292299,2.76923 7,2.76923 5.707701,0 7,-2.76923 7,-2.76923 v -1.8 c 0,0 0,-4.433538 -6.9986,-4.430769 z"
           id="path44" />
      </g>
      <path
         style="opacity:0.2;fill:#ffffff"
         d="M 16,2 A 14,14 0 0 0 2,16 14,14 0 0 0 2.0214844,16.585938 14,14 0 0 1 16,3 14,14 0 0 1 29.978516,16.414062 14,14 0 0 0 30,16 14,14 0 0 0 16,2 Z"
         id="path48" />
    </g>
    <circle
       style="fill:#f15757"
       cx="-42"
       cy="18.5"
       r="8"
       id="circle52" />
    <path
       style="opacity:0.2"
       d="M -34.021,18.924 A 8,8 0 0 1 -42,26.5 8,8 0 0 1 -49.979,19.076 8,8 0 0 0 -50,19.5 a 8,8 0 0 0 8,8 8,8 0 0 0 8,-8 8,8 0 0 0 -0.02148,-0.57617 z"
       id="path54" />
    <rect
       style="fill:#ffffff"
       width="2"
       height="7"
       x="-43"
       y="12.5"
       rx="1"
       ry=".875"
       id="rect56" />
    <rect
       style="fill:#ffffff"
       width="2"
       height="7"
       x="17.5"
       y="36"
       rx="1"
       ry=".875"
       transform="rotate(90)"
       id="rect58" />
  </g>
  <g
     id="user-away"
     transform="translate(64)">
    <rect
       style="opacity:0.00100002"
       width="32"
       height="32"
       x="0"
       y="0"
       rx="1.058"
       ry="1.971"
       id="rect61" />
    <g
       transform="translate(0,-0.5)"
       id="g81">
      <circle
         style="opacity:0.2;fill:#00100f"
         cx="16"
         cy="17"
         r="14"
         id="circle63" />
      <circle
         style="fill:#009587"
         cx="16"
         cy="16"
         r="14"
         id="circle65" />
      <g
         style="opacity:0.2"
         transform="translate(0,1)"
         id="g71">
        <path
           d="m 16,6 c -2.2096,0 -4,1.7912 -4,4 0,2.2088 1.7904,4 4,4 2.2096,0 4,-1.7912 4,-4 0,-2.2088 -1.7904,-4 -4,-4 z"
           id="path67" />
        <path
           d="m 16,16.000001 c -6.9993,0.0042 -7,4.430769 -7,4.430769 v 1.8 c 0,0 1.292299,2.76923 7,2.76923 5.707701,0 7,-2.76923 7,-2.76923 v -1.8 c 0,0 0,-4.433538 -6.9986,-4.430769 z"
           id="path69" />
      </g>
      <g
         id="g77">
        <path
           style="fill:#ffffff"
           d="m 16,6 c -2.2096,0 -4,1.7912 -4,4 0,2.2088 1.7904,4 4,4 2.2096,0 4,-1.7912 4,-4 0,-2.2088 -1.7904,-4 -4,-4 z"
           id="path73" />
        <path
           style="fill:#ffffff"
           d="m 16,16.000001 c -6.9993,0.0042 -7,4.430769 -7,4.430769 v 1.8 c 0,0 1.292299,2.76923 7,2.76923 5.707701,0 7,-2.76923 7,-2.76923 v -1.8 c 0,0 0,-4.433538 -6.9986,-4.430769 z"
           id="path75" />
      </g>
      <path
         style="opacity:0.2;fill:#ffffff"
         d="M 16,2 A 14,14 0 0 0 2,16 14,14 0 0 0 2.0214844,16.585938 14,14 0 0 1 16,3 14,14 0 0 1 29.978516,16.414062 14,14 0 0 0 30,16 14,14 0 0 0 16,2 Z"
         id="path79" />
    </g>
    <circle
       style="fill:#f3931a"
       cx="24"
       cy="23"
       r="8"
       id="circle83" />
    <path
       style="opacity:0.2"
       d="M 31.979,23.424 A 8,8 0 0 1 24,31 8,8 0 0 1 16.021,23.576 8,8 0 0 0 16,24 a 8,8 0 0 0 8,8 8,8 0 0 0 8,-8 8,8 0 0 0 -0.02148,-0.57617 z"
       id="path85" />
    <path
       style="fill:#ffffff;fill-rule:evenodd"
       d="m 28,19 -8,4 2,1 1,3 1,-2 2,1 z"
       id="path87" />
  </g>
  <g
     id="user-offline"
     transform="translate(96)">
    <rect
       style="opacity:0.00100002"
       width="32"
       height="32"
       x="0"
       y="0"
       rx="1.058"
       ry="1.971"
       id="rect90" />
    <g
       transform="translate(0,-0.5)"
       id="g110">
      <circle
         style="opacity:0.2;fill:#00100f"
         cx="16"
         cy="17"
         r="14"
         id="circle92" />
      <circle
         style="fill:#009587"
         cx="16"
         cy="16"
         r="14"
         id="circle94" />
      <g
         style="opacity:0.2"
         transform="translate(0,1)"
         id="g100">
        <path
           d="m 16,6 c -2.2096,0 -4,1.7912 -4,4 0,2.2088 1.7904,4 4,4 2.2096,0 4,-1.7912 4,-4 0,-2.2088 -1.7904,-4 -4,-4 z"
           id="path96" />
        <path
           d="m 16,16.000001 c -6.9993,0.0042 -7,4.430769 -7,4.430769 v 1.8 c 0,0 1.292299,2.76923 7,2.76923 5.707701,0 7,-2.76923 7,-2.76923 v -1.8 c 0,0 0,-4.433538 -6.9986,-4.430769 z"
           id="path98" />
      </g>
      <g
         id="g106">
        <path
           style="fill:#ffffff"
           d="m 16,6 c -2.2096,0 -4,1.7912 -4,4 0,2.2088 1.7904,4 4,4 2.2096,0 4,-1.7912 4,-4 0,-2.2088 -1.7904,-4 -4,-4 z"
           id="path102" />
        <path
           style="fill:#ffffff"
           d="m 16,16.000001 c -6.9993,0.0042 -7,4.430769 -7,4.430769 v 1.8 c 0,0 1.292299,2.76923 7,2.76923 5.707701,0 7,-2.76923 7,-2.76923 v -1.8 c 0,0 0,-4.433538 -6.9986,-4.430769 z"
           id="path104" />
      </g>
      <path
         style="opacity:0.2;fill:#ffffff"
         d="M 16,2 A 14,14 0 0 0 2,16 14,14 0 0 0 2.0214844,16.585938 14,14 0 0 1 16,3 14,14 0 0 1 29.978516,16.414062 14,14 0 0 0 30,16 14,14 0 0 0 16,2 Z"
         id="path108" />
    </g>
    <circle
       style="fill:#a7a7a7"
       cx="24"
       cy="23"
       r="8"
       id="circle112" />
    <path
       style="opacity:0.2"
       d="M 31.979,23.424 A 8,8 0 0 1 24,31 8,8 0 0 1 16.021,23.576 8,8 0 0 0 16,24 a 8,8 0 0 0 8,8 8,8 0 0 0 8,-8 8,8 0 0 0 -0.02148,-0.57617 z"
       id="path114" />
    <rect
       style="fill:#ffffff"
       width="2"
       height="10"
       x="22"
       y="-29"
       rx="1"
       ry="1"
       transform="rotate(90)"
       id="rect116" />
  </g>
  <g
     id="user-invisible"
     transform="translate(160)">
    <rect
       style="opacity:0.00100002"
       width="32"
       height="32"
       x="0"
       y="0"
       rx="1.058"
       ry="1.971"
       id="rect119" />
    <g
       transform="translate(0,-0.5)"
       id="g139">
      <circle
         style="opacity:0.2;fill:#00100f"
         cx="16"
         cy="17"
         r="14"
         id="circle121" />
      <circle
         style="fill:#009587"
         cx="16"
         cy="16"
         r="14"
         id="circle123" />
      <g
         style="opacity:0.2"
         transform="translate(0,1)"
         id="g129">
        <path
           d="m 16,6 c -2.2096,0 -4,1.7912 -4,4 0,2.2088 1.7904,4 4,4 2.2096,0 4,-1.7912 4,-4 0,-2.2088 -1.7904,-4 -4,-4 z"
           id="path125" />
        <path
           d="m 16,16.000001 c -6.9993,0.0042 -7,4.430769 -7,4.430769 v 1.8 c 0,0 1.292299,2.76923 7,2.76923 5.707701,0 7,-2.76923 7,-2.76923 v -1.8 c 0,0 0,-4.433538 -6.9986,-4.430769 z"
           id="path127" />
      </g>
      <g
         id="g135">
        <path
           style="fill:#ffffff"
           d="m 16,6 c -2.2096,0 -4,1.7912 -4,4 0,2.2088 1.7904,4 4,4 2.2096,0 4,-1.7912 4,-4 0,-2.2088 -1.7904,-4 -4,-4 z"
           id="path131" />
        <path
           style="fill:#ffffff"
           d="m 16,16.000001 c -6.9993,0.0042 -7,4.430769 -7,4.430769 v 1.8 c 0,0 1.292299,2.76923 7,2.76923 5.707701,0 7,-2.76923 7,-2.76923 v -1.8 c 0,0 0,-4.433538 -6.9986,-4.430769 z"
           id="path133" />
      </g>
      <path
         style="opacity:0.2;fill:#ffffff"
         d="M 16,2 A 14,14 0 0 0 2,16 14,14 0 0 0 2.0214844,16.585938 14,14 0 0 1 16,3 14,14 0 0 1 29.978516,16.414062 14,14 0 0 0 30,16 14,14 0 0 0 16,2 Z"
         id="path137" />
    </g>
    <circle
       style="fill:#4f4f4f"
       cx="24"
       cy="23"
       r="8"
       id="circle141" />
    <path
       style="opacity:0.2"
       d="M 31.979,23.424 A 8,8 0 0 1 24,31 8,8 0 0 1 16.021,23.576 8,8 0 0 0 16,24 a 8,8 0 0 0 8,8 8,8 0 0 0 8,-8 8,8 0 0 0 -0.02148,-0.57617 z"
       id="path143" />
    <rect
       style="fill:#ffffff"
       width="2"
       height="10"
       x="31.29"
       y="2.92"
       rx="1"
       ry="1"
       transform="rotate(30)"
       id="rect145" />
  </g>
  <g
     id="user-online"
     transform="translate(128)">
    <rect
       style="opacity:0.00100002"
       width="32"
       height="32"
       x="0"
       y="0"
       rx="1.058"
       ry="1.971"
       id="rect148" />
    <g
       transform="translate(0,-0.5)"
       id="g168">
      <circle
         style="opacity:0.2;fill:#00100f"
         cx="16"
         cy="17"
         r="14"
         id="circle150" />
      <circle
         style="fill:#009587"
         cx="16"
         cy="16"
         r="14"
         id="circle152" />
      <g
         style="opacity:0.2"
         transform="translate(0,1)"
         id="g158">
        <path
           d="m 16,6 c -2.2096,0 -4,1.7912 -4,4 0,2.2088 1.7904,4 4,4 2.2096,0 4,-1.7912 4,-4 0,-2.2088 -1.7904,-4 -4,-4 z"
           id="path154" />
        <path
           d="m 16,16.000001 c -6.9993,0.0042 -7,4.430769 -7,4.430769 v 1.8 c 0,0 1.292299,2.76923 7,2.76923 5.707701,0 7,-2.76923 7,-2.76923 v -1.8 c 0,0 0,-4.433538 -6.9986,-4.430769 z"
           id="path156" />
      </g>
      <g
         id="g164">
        <path
           style="fill:#ffffff"
           d="m 16,6 c -2.2096,0 -4,1.7912 -4,4 0,2.2088 1.7904,4 4,4 2.2096,0 4,-1.7912 4,-4 0,-2.2088 -1.7904,-4 -4,-4 z"
           id="path160" />
        <path
           style="fill:#ffffff"
           d="m 16,16.000001 c -6.9993,0.0042 -7,4.430769 -7,4.430769 v 1.8 c 0,0 1.292299,2.76923 7,2.76923 5.707701,0 7,-2.76923 7,-2.76923 v -1.8 c 0,0 0,-4.433538 -6.9986,-4.430769 z"
           id="path162" />
      </g>
      <path
         style="opacity:0.2;fill:#ffffff"
         d="M 16,2 A 14,14 0 0 0 2,16 14,14 0 0 0 2.0214844,16.585938 14,14 0 0 1 16,3 14,14 0 0 1 29.978516,16.414062 14,14 0 0 0 30,16 14,14 0 0 0 16,2 Z"
         id="path166" />
    </g>
    <circle
       style="fill:#79b81d"
       cx="24"
       cy="23"
       r="8"
       id="circle170" />
    <path
       style="opacity:0.2"
       d="M 31.979,23.424 A 8,8 0 0 1 24,31 8,8 0 0 1 16.021,23.576 8,8 0 0 0 16,24 a 8,8 0 0 0 8,8 8,8 0 0 0 8,-8 8,8 0 0 0 -0.02148,-0.57617 z"
       id="path172" />
    <path
       style="fill:none;stroke:#ffffff;stroke-width:2;stroke-linecap:round;stroke-linejoin:round"
       d="m 21,23 3,3 4,-5"
       id="path174" />
  </g>
  <g
     id="user-away-extended"
     transform="translate(192)">
    <rect
       style="opacity:0.00100002"
       width="32"
       height="32"
       x="0"
       y="0"
       rx="1.058"
       ry="1.971"
       id="rect177" />
    <g
       transform="translate(0,-0.5)"
       id="g197">
      <circle
         style="opacity:0.2;fill:#00100f"
         cx="16"
         cy="17"
         r="14"
         id="circle179" />
      <circle
         style="fill:#009587"
         cx="16"
         cy="16"
         r="14"
         id="circle181" />
      <g
         style="opacity:0.2"
         transform="translate(0,1)"
         id="g187">
        <path
           d="m 16,6 c -2.2096,0 -4,1.7912 -4,4 0,2.2088 1.7904,4 4,4 2.2096,0 4,-1.7912 4,-4 0,-2.2088 -1.7904,-4 -4,-4 z"
           id="path183" />
        <path
           d="m 16,16.000001 c -6.9993,0.0042 -7,4.430769 -7,4.430769 v 1.8 c 0,0 1.292299,2.76923 7,2.76923 5.707701,0 7,-2.76923 7,-2.76923 v -1.8 c 0,0 0,-4.433538 -6.9986,-4.430769 z"
           id="path185" />
      </g>
      <g
         id="g193">
        <path
           style="fill:#ffffff"
           d="m 16,6 c -2.2096,0 -4,1.7912 -4,4 0,2.2088 1.7904,4 4,4 2.2096,0 4,-1.7912 4,-4 0,-2.2088 -1.7904,-4 -4,-4 z"
           id="path189" />
        <path
           style="fill:#ffffff"
           d="m 16,16.000001 c -6.9993,0.0042 -7,4.430769 -7,4.430769 v 1.8 c 0,0 1.292299,2.76923 7,2.76923 5.707701,0 7,-2.76923 7,-2.76923 v -1.8 c 0,0 0,-4.433538 -6.9986,-4.430769 z"
           id="path191" />
      </g>
      <path
         style="opacity:0.2;fill:#ffffff"
         d="M 16,2 A 14,14 0 0 0 2,16 14,14 0 0 0 2.0214844,16.585938 14,14 0 0 1 16,3 14,14 0 0 1 29.978516,16.414062 14,14 0 0 0 30,16 14,14 0 0 0 16,2 Z"
         id="path195" />
    </g>
    <circle
       style="fill:#b754e6"
       cx="24"
       cy="23"
       r="8"
       id="circle199" />
    <path
       style="opacity:0.2"
       d="M 31.979,23.424 A 8,8 0 0 1 24,31 8,8 0 0 1 16.021,23.576 8,8 0 0 0 16,24 a 8,8 0 0 0 8,8 8,8 0 0 0 8,-8 8,8 0 0 0 -0.02148,-0.57617 z"
       id="path201" />
    <circle
       style="fill:#ffffff"
       cx="24"
       cy="23"
       r="1"
       id="circle203" />
    <circle
       style="fill:#ffffff"
       cx="28"
       cy="23"
       r="1"
       id="circle205" />
    <circle
       style="fill:#ffffff"
       cx="20"
       cy="23"
       r="1"
       id="circle207" />
  </g>
  <g
     id="22-22-user-online"
     transform="translate(123,-27)">
    <rect
       style="opacity:0.00100002"
       width="22"
       height="22"
       x="5"
       y="5"
       id="rect210" />
    <path
       style="fill:#22252a"
       d="m 16,8 c -4.432,0 -8,3.568 -8,8 0,4.432 3.568,8 8,8 0.402589,0 0.795337,-0.03885 1.181641,-0.0957 A 5.5,5.5 0 0 1 16.027344,20.99805 C 16.017318,20.998076 16.010073,21 16,21 12.738457,21 12,19.460938 12,19.460938 v -1 c 0,-10e-7 4e-4,-2.458638 4,-2.460938 0.823311,-3.09e-4 1.469011,0.107876 1.988281,0.273438 A 5.5,5.5 0 0 1 21.5,15 5.5,5.5 0 0 1 23.980469,15.597656 C 23.7709,11.355315 20.296148,8 16,8 Z m 0,3 c 1.104533,0 2,0.895467 2,2 0,1.1044 -0.8956,2 -2,2 -1.1044,0 -2,-0.8956 -2,-2 0,-1.1044 0.8956,-2 2,-2 z"
       id="path212" />
    <path
       style="fill:#22252a"
       d="m 21.1875,16.009766 c -1.44098,0.101835 -2.807333,0.895036 -3.583984,2.240234 -1.24264,2.152317 -0.505833,4.903842 1.646484,6.146484 2.152317,1.24264 4.903842,0.505833 6.146484,-1.646484 1.24264,-2.152317 0.505833,-4.903842 -1.646484,-6.146484 -0.807119,-0.46599 -1.697912,-0.654852 -2.5625,-0.59375 z m 2.458984,2.636718 0.707032,0.707032 L 21,22.707031 18.646484,20.353516 19.353516,19.646484 21,21.292969 Z"
       id="path214" />
  </g>
  <g
     id="22-22-user-busy"
     transform="translate(27,-27)">
    <rect
       style="opacity:0.00100002"
       width="22"
       height="22"
       x="5"
       y="5"
       id="rect217" />
    <path
       style="fill:#22252a"
       d="m 16,8 c -4.432,0 -8,3.568 -8,8 0,4.432 3.568,8 8,8 0.402589,0 0.795337,-0.03885 1.181641,-0.0957 A 5.5,5.5 0 0 1 16.027344,20.99805 C 16.017318,20.998076 16.010073,21 16,21 12.738457,21 12,19.460938 12,19.460938 v -1 c 0,-10e-7 4e-4,-2.458638 4,-2.460938 0.823311,-3.09e-4 1.469011,0.107876 1.988281,0.273438 A 5.5,5.5 0 0 1 21.5,15 5.5,5.5 0 0 1 23.980469,15.597656 C 23.7709,11.355315 20.296148,8 16,8 Z m 0,3 c 1.104533,0 2,0.895467 2,2 0,1.1044 -0.8956,2 -2,2 -1.1044,0 -2,-0.8956 -2,-2 0,-1.1044 0.8956,-2 2,-2 z"
       id="path219" />
    <path
       style="fill:#22252a"
       d="M 21.5,16 A 4.5,4.5 0 0 0 17,20.5 4.5,4.5 0 0 0 21.5,25 4.5,4.5 0 0 0 26,20.5 4.5,4.5 0 0 0 21.5,16 Z M 21,17 h 1 v 3 h 3 v 1 h -3 -1 v -1 z"
       id="path221" />
  </g>
  <g
     id="22-22-user-offline"
     transform="translate(91,-27)">
    <rect
       style="opacity:0.00100002"
       width="22"
       height="22"
       x="5"
       y="5"
       id="rect224" />
    <path
       style="opacity:0.3;fill:#22252a"
       d="m 16,8 c -4.432,0 -8,3.568 -8,8 0,4.432 3.568,8 8,8 0.402589,0 0.795337,-0.03885 1.181641,-0.0957 A 5.5,5.5 0 0 1 16.027344,20.99805 C 16.017318,20.998076 16.010073,21 16,21 12.738457,21 12,19.460938 12,19.460938 v -1 c 0,-10e-7 4e-4,-2.458638 4,-2.460938 0.823311,-3.09e-4 1.469011,0.107876 1.988281,0.273438 A 5.5,5.5 0 0 1 21.5,15 5.5,5.5 0 0 1 23.980469,15.597656 C 23.7709,11.355315 20.296148,8 16,8 Z m 0,3 c 1.104533,0 2,0.895467 2,2 0,1.1044 -0.8956,2 -2,2 -1.1044,0 -2,-0.8956 -2,-2 0,-1.1044 0.8956,-2 2,-2 z"
       id="path226" />
    <path
       style="fill:#22252a"
       d="M 21.5,16 C 19.014719,16 17,18.014719 17,20.5 17,22.985281 19.014719,25 21.5,25 23.985281,25 26,22.985281 26,20.5 26,18.014719 23.985281,16 21.5,16 Z m 2.5,4 v 1 h -5 v -1 z"
       id="path228" />
  </g>
  <g
     id="22-22-user-invisible"
     transform="translate(155,-27)">
    <rect
       style="opacity:0.00100002"
       width="22"
       height="22"
       x="5"
       y="5"
       id="rect231" />
    <path
       style="fill:#22252a"
       d="m 16,8 c -4.432,0 -8,3.568 -8,8 0,4.432 3.568,8 8,8 0.402589,0 0.795337,-0.03885 1.181641,-0.0957 A 5.5,5.5 0 0 1 16.027344,20.99805 C 16.017318,20.998076 16.010073,21 16,21 12.738457,21 12,19.460938 12,19.460938 v -1 c 0,-10e-7 4e-4,-2.458638 4,-2.460938 0.823311,-3.09e-4 1.469011,0.107876 1.988281,0.273438 A 5.5,5.5 0 0 1 21.5,15 5.5,5.5 0 0 1 23.980469,15.597656 C 23.7709,11.355315 20.296148,8 16,8 Z m 0,3 c 1.104533,0 2,0.895467 2,2 0,1.1044 -0.8956,2 -2,2 -1.1044,0 -2,-0.8956 -2,-2 0,-1.1044 0.8956,-2 2,-2 z"
       id="path233" />
    <path
       style="fill:#22252a"
       d="m 17.602885,18.25 c -1.24264,2.152317 -0.505202,4.904473 1.647115,6.147115 2.152317,1.24264 4.904473,0.505202 6.147115,-1.647115 C 26.639755,20.597683 25.902317,17.845527 23.75,16.602885 21.597683,15.360245 18.845527,16.097683 17.602885,18.25 Z m 4.714103,-0.165063 0.866024,0.499999 -2.5,4.330127 -0.866024,-0.499999 z"
       id="path235" />
  </g>
  <g
     id="22-22-user-away-extended"
     transform="translate(187,-27)">
    <rect
       style="opacity:0.00100002"
       width="22"
       height="22"
       x="5"
       y="5"
       id="rect238" />
    <path
       style="fill:#22252a"
       d="m 16,8 c -4.432,0 -8,3.568 -8,8 0,4.432 3.568,8 8,8 0.402589,0 0.795337,-0.03885 1.181641,-0.0957 A 5.5,5.5 0 0 1 16.027344,20.99805 C 16.017318,20.998076 16.010073,21 16,21 12.738457,21 12,19.460938 12,19.460938 v -1 c 0,-10e-7 4e-4,-2.458638 4,-2.460938 0.823311,-3.09e-4 1.469011,0.107876 1.988281,0.273438 A 5.5,5.5 0 0 1 21.5,15 5.5,5.5 0 0 1 23.980469,15.597656 C 23.7709,11.355315 20.296148,8 16,8 Z m 0,3 c 1.104533,0 2,0.895467 2,2 0,1.1044 -0.8956,2 -2,2 -1.1044,0 -2,-0.8956 -2,-2 0,-1.1044 0.8956,-2 2,-2 z"
       id="path240" />
    <path
       style="fill:#22252a"
       d="M 21.5,16 C 19.014719,16 17,18.014719 17,20.5 17,22.985281 19.014719,25 21.5,25 23.985281,25 26,22.985281 26,20.5 26,18.014719 23.985281,16 21.5,16 Z M 19,20 h 1 v 1 h -1 z m 2,0 h 1 v 1 h -1 z m 2,0 h 1 v 1 h -1 z"
       id="path242" />
  </g>
  <g
     id="22-22-user-away"
     transform="translate(59,-27)">
    <rect
       style="opacity:0.00100002"
       width="22"
       height="22"
       x="5"
       y="5"
       id="rect245" />
    <path
       style="fill:#22252a"
       d="m 16,8 c -4.432,0 -8,3.568 -8,8 0,4.432 3.568,8 8,8 0.402589,0 0.795337,-0.03885 1.181641,-0.0957 A 5.5,5.5 0 0 1 16.027344,20.99805 C 16.017318,20.998076 16.010073,21 16,21 12.738457,21 12,19.460938 12,19.460938 v -1 c 0,-10e-7 4e-4,-2.458638 4,-2.460938 0.823311,-3.09e-4 1.469011,0.107876 1.988281,0.273438 A 5.5,5.5 0 0 1 21.5,15 5.5,5.5 0 0 1 23.980469,15.597656 C 23.7709,11.355315 20.296148,8 16,8 Z m 0,3 c 1.104533,0 2,0.895467 2,2 0,1.1044 -0.8956,2 -2,2 -1.1044,0 -2,-0.8956 -2,-2 0,-1.1044 0.8956,-2 2,-2 z"
       id="path247" />
    <path
       style="fill:#22252a"
       d="M 21.5,16 C 19.014719,16 17,18.014719 17,20.5 17,22.985281 19.014719,25 21.5,25 23.985281,25 26,22.985281 26,20.5 26,18.014719 23.985281,16 21.5,16 Z M 24,18 22.75,22.375 21.5,21.75 20.875,23 20.25,21.125 19,20.5 Z"
       id="path249" />
  </g>
  <g
     id="user-trash"
     transform="translate(0,64)">
    <rect
       width="32"
       height="32"
       x="0"
       y="0"
       style="opacity:0.00100002"
       id="rect252" />
    <g
       id="g274">
      <rect
         width="8"
         height="3"
         x="12"
         y="2"
         style="fill:#1abc9c;fill-opacity:1"
         id="rect254" />
      <rect
         width="22"
         height="26"
         x="5"
         y="4"
         rx="1.467"
         ry="1.529"
         style="fill:#1abc9c;fill-opacity:0.94117647"
         id="rect256" />
      <rect
         width="26"
         height="6"
         x="3"
         y="3"
         rx="1.444"
         ry="1.5"
         style="fill:#1abc9c;fill-opacity:0.94117647"
         id="rect258" />
      <rect
         width="4"
         height="14"
         x="14"
         y="13"
         rx="1"
         ry=".7"
         style="opacity:0.4"
         id="rect260" />
      <rect
         width="4"
         height="14"
         x="8"
         y="13"
         rx="1"
         ry=".7"
         style="opacity:0.4"
         id="rect262" />
      <rect
         width="4"
         height="14"
         x="20"
         y="13"
         rx="1"
         ry=".7"
         style="opacity:0.4"
         id="rect264" />
      <path
         d="m 5,28.471 v 1 C 5,30.318 5.6543,31 6.4668,31 h 19.066 c 0.813,0 1.467,-0.682 1.467,-1.529 v -1 c 0,0.847 -0.654,1.529 -1.467,1.529 H 6.4668 c -0.8127,0 -1.467,-0.682 -1.467,-1.529 z"
         style="opacity:0.2"
         id="path266" />
      <path
         d="m 3,7.5 v 1 C 3,9.331 3.6451,10 4.4453,10 h 23.11 c 0.8,0 1.445,-0.669 1.445,-1.5 v -1 c 0,0.831 -0.645,1.5 -1.445,1.5 H 4.4453 C 3.6454,9 3.0003,8.331 3.0003,7.5 Z"
         style="opacity:0.2"
         id="path268" />
      <path
         d="M 4.4453,3 C 3.6451,3 3,3.669 3,4.5 v 1 C 3,4.669 3.6451,4 4.4453,4 h 23.11 c 0.8,0 1.445,0.669 1.445,1.5 v -1 c 0,-0.831 -0.645,-1.5 -1.445,-1.5 z"
         style="opacity:0.2;fill:#ffffff"
         id="path270" />
      <rect
         width="8"
         height="1"
         x="12.000001"
         y="2"
         style="opacity:0.1;fill:#ffffff;fill-opacity:1"
         id="rect272" />
    </g>
  </g>
  <g
     id="user-trash-full"
     transform="translate(0,32)">
    <rect
       style="opacity:0.00100002"
       width="32"
       height="32"
       x="0"
       y="0"
       id="rect277" />
    <g
       transform="translate(-1.5e-4)"
       id="g299">
      <rect
         style="fill:#d95656"
         width="8"
         height="3"
         x="12"
         y="2"
         id="rect279" />
      <rect
         style="opacity:0.1;fill:#ffffff"
         width="8"
         height="1"
         x="12"
         y="2"
         id="rect281" />
      <rect
         style="fill:#ba4242"
         width="22"
         height="26"
         x="5"
         y="4"
         rx="1.467"
         ry="1.529"
         id="rect283" />
      <rect
         style="fill:#d95656"
         width="26"
         height="6"
         x="3"
         y="3"
         rx="1.444"
         ry="1.5"
         id="rect285" />
      <rect
         style="opacity:0.4"
         width="4"
         height="14"
         x="14"
         y="13"
         rx="1"
         ry=".7"
         id="rect287" />
      <rect
         style="opacity:0.4"
         width="4"
         height="14"
         x="8"
         y="13"
         rx="1"
         ry=".7"
         id="rect289" />
      <rect
         style="opacity:0.4"
         width="4"
         height="14"
         x="20"
         y="13"
         rx="1"
         ry=".7"
         id="rect291" />
      <path
         style="opacity:0.2"
         d="m 5,28.471 v 1 C 5,30.318 5.6543,31 6.4668,31 h 19.066 c 0.813,0 1.467,-0.682 1.467,-1.529 v -1 c 0,0.847 -0.654,1.529 -1.467,1.529 H 6.4668 c -0.8127,0 -1.467,-0.682 -1.467,-1.529 z"
         id="path293" />
      <path
         style="opacity:0.2"
         d="m 3,7.5 v 1 C 3,9.331 3.6451,10 4.4453,10 h 23.11 c 0.8,0 1.445,-0.669 1.445,-1.5 v -1 c 0,0.831 -0.645,1.5 -1.445,1.5 H 4.4453 C 3.6454,9 3.0003,8.331 3.0003,7.5 Z"
         id="path295" />
      <path
         style="opacity:0.2;fill:#ffffff"
         d="M 4.4453,3 C 3.6451,3 3,3.669 3,4.5 v 1 C 3,4.669 3.6451,4 4.4453,4 h 23.11 c 0.8,0 1.445,0.669 1.445,1.5 v -1 c 0,-0.831 -0.645,-1.5 -1.445,-1.5 z"
         id="path297" />
    </g>
  </g>
  <g
     id="22-22-user-trash"
     transform="translate(27,69)">
    <rect
       width="22"
       height="22"
       x="5"
       y="5"
       style="opacity:0.00100002"
       id="rect302" />
    <path
       d="m 14,9 c -1,0 -1,1 -1,1 h -3 c 0,0 -1,0 -1,1 v 1 h 13 v -1 c 0,-1 -1,-1 -1,-1 h -3 c 0,0 0,-1 -1,-1 z m -4,4 v 9 c 0,0.52 0.48,1 1,1 h 8 1 c 0.52,0 1,-0.48 1,-1 v -9 z"
       style="fill:#22252a"
       id="path304" />
  </g>
  <g
     id="22-22-user-trash-full"
     transform="translate(27,37)">
    <rect
       style="opacity:0.00100002"
       width="22"
       height="22"
       x="5"
       y="5"
       id="rect307" />
    <path
       d="m 14,9.000001 c -1,0 -1,1 -1,1 h -3 c 0,0 -1,0 -1,1 V 12 h 13 v -0.999999 c 0,-1 -1,-1 -1,-1 h -3 c 0,0 0,-1 -1,-1 z M 9,13 v 3 c 0,1 0.05922,2.15 0.199219,3 C 9.339219,19.85 10,22 10,22 c 0,0 0.48,1 1,1 h 9 c 0.52,0 1,-1 1,-1 0,0 0.660781,-2.15 0.800781,-3 C 21.940781,18.15 22,17 22,16 v -3 z"
       style="fill:#22252a"
       id="path309" />
  </g>
  <g
     id="user-desktop"
     transform="translate(0,96)">
    <rect
       width="32"
       height="32"
       x="0"
       y="0"
       style="opacity:0.00100002"
       id="rect312" />
    <g
       id="g324">
      <rect
         style="opacity:0.2"
         width="25"
         height="22"
         x="3"
         y="6"
         rx="1.25"
         ry="1.25"
         id="rect314" />
      <path
         style="fill:#1abc9c"
         d="M 3,7.9 V 25.75 C 3,26.4425 3.5575,27 4.25,27 h 22.5 C 27.4425,27 28,26.4425 28,25.75 V 7.9 Z"
         id="path316" />
      <path
         style="fill:#1d344f"
         d="M 4.25,5 C 3.5575,5 3,5.5575 3,6.25 V 8 H 28 V 6.25 C 28,5.5575 27.442,5 26.75,5 Z"
         id="path318" />
      <path
         style="fill:#1d344f"
         d="M 10.5,24 C 9.669,24 9,24.669 9,25.5 V 27 H 22 V 25.5 C 22,24.669 21.331,24 20.5,24 Z"
         id="path320" />
      <path
         style="opacity:0.1;fill:#ffffff"
         d="M 4.25,5 C 3.5575,5 3,5.5575 3,6.25 v 1 C 3,6.5575 3.5575,6 4.25,6 h 22.5 C 27.442,6 28,6.5575 28,7.25 v -1 C 28,5.5575 27.442,5 26.75,5 Z"
         id="path322" />
    </g>
  </g>
  <g
     id="22-22-user-desktop"
     transform="translate(27,101)">
    <rect
       width="22"
       height="22"
       x="5"
       y="5"
       style="opacity:0.00100002"
       id="rect327" />
    <path
       d="M 8,11 V 22.205078 C 8,22.64576 8.3575814,23 8.8007812,23 H 12 v -1 c 0,-0.554001 0.412443,-1 0.923828,-1 h 6.152344 C 19.587557,21 20,21.445999 20,22 v 1 h 3.199219 C 23.642419,23 24,22.64576 24,22.205078 V 11 Z"
       style="fill:#22252a"
       id="path329" />
    <path
       style="opacity:0.3;fill:#22252a"
       d="m 8.7999995,8.9999999 c -0.4432,0 -0.8,0.3547728 -0.8,0.7954546 V 11 H 24 V 9.7954545 C 24,9.3547727 23.64288,8.9999999 23.2,8.9999999 Z"
       id="path331" />
  </g>
</svg>
