<?xml version="1.0" encoding="UTF-8" standalone="no"?>
<svg
   xmlns:osb="http://www.openswatchbook.org/uri/2009/osb"
   xmlns:dc="http://purl.org/dc/elements/1.1/"
   xmlns:cc="http://creativecommons.org/ns#"
   xmlns:rdf="http://www.w3.org/1999/02/22-rdf-syntax-ns#"
   xmlns:svg="http://www.w3.org/2000/svg"
   xmlns="http://www.w3.org/2000/svg"
   xmlns:sodipodi="http://sodipodi.sourceforge.net/DTD/sodipodi-0.dtd"
   xmlns:inkscape="http://www.inkscape.org/namespaces/inkscape"
   width="32"
   height="32"
   version="1.1"
   style="enable-background:new"
   id="svg43"
   sodipodi:docname="view.svg"
   inkscape:version="0.92.2 2405546, 2018-03-11">
  <metadata
     id="metadata47">
    <rdf:RDF>
      <cc:Work
         rdf:about="">
        <dc:format>image/svg+xml</dc:format>
        <dc:type
           rdf:resource="http://purl.org/dc/dcmitype/StillImage" />
      </cc:Work>
    </rdf:RDF>
  </metadata>
  <sodipodi:namedview
     pagecolor="#ffffff"
     bordercolor="#666666"
     borderopacity="1"
     objecttolerance="10"
     gridtolerance="10"
     guidetolerance="10"
     inkscape:pageopacity="0"
     inkscape:pageshadow="2"
     inkscape:window-width="755"
     inkscape:window-height="480"
     id="namedview45"
     showgrid="false"
     inkscape:zoom="3.6875"
     inkscape:cx="28.995103"
     inkscape:cy="16.687201"
     inkscape:window-x="0"
     inkscape:window-y="28"
     inkscape:window-maximized="0"
     inkscape:current-layer="svg43" />
  <defs
     id="defs4">
    <linearGradient
       id="linearGradient5606"
       osb:paint="solid">
      <stop
         id="stop5608"
         offset="0"
         style="stop-color:#000000" />
    </linearGradient>
  </defs>
  <g
     id="view-refresh"
     transform="translate(-250.00021,54.000004)">
    <path
       d="m 282.00021,-38.000004 16,0 0,16 -16,0 z"
       style="opacity:0;fill:#ff0000"
       id="path6" />
    <g
       transform="translate(281.97246,-37.000109)"
       style="enable-background:new"
       id="g11">
      <g
         id="layer12-0"
         transform="translate(-485.03396,-41.017475)">
        <path
           d="m 499.06185,49.01758 c 0,3.31371 -2.68629,6 -6,6 -3.28006,0 -5.94034,-2.63316 -5.99414,-5.90039 a 1,1 0 0 1 -0.006,-0.09961 1,1 0 0 1 1,-1 1,1 0 0 1 1,1 c 0,2.20914 1.79086,4 4,4 2.20914,0 4,-1.79086 4,-4 0,-2.20914 -1.79086,-4 -4,-4 l 0,2 -4,-3 4,-3 0,2 c 3.31371,0 6,2.68629 6,6 z"
           style="fill:#22252a"
           id="path8" />
      </g>
    </g>
  </g>
  <g
     id="view-history">
    <rect
       width="32"
       height="32"
       x="0"
       y="0"
       style="opacity:0.00100002"
       id="rect14" />
    <g
       id="g40">
      <path
         style="opacity:0.2"
         d="M 16,3.0000001 C 8.2752851,3.0000001 2,9.2752829 2,17 2,24.724717 8.2752851,31.000002 16,31 23.724715,31 30.000007,24.724717 30,17 30,9.2752829 23.724715,3.0000001 16,3.0000001 Z"
         id="path16" />
      <path
         style="fill:#4f4f4f"
         d="M 16,2.0000001 C 8.2752851,2.0000001 2,8.2752829 2,16 2,23.724717 8.2752851,30.000002 16,30 23.724715,30 30.000007,23.724717 30,16 30,8.2752829 23.724715,2.0000001 16,2.0000001 Z"
         id="path18" />
      <path
         style="opacity:0.1;fill:#ffffff"
         d="M 16,2 C 8.2752851,2 2,8.2752829 2,16 2,16.168848 2.019445,16.332587 2.025391,16.5 2.2914716,9.0083654 8.4441333,3 16,3 23.555867,3 29.708528,9.0083654 29.974609,16.5 29.980555,16.332587 30,16.168848 30,16 30,8.2752829 23.724715,2 16,2 Z"
         id="path20" />
      <path
         style="opacity:0.2"
         d="M 16.000001,5.9999999 C 9.9305795,5.9999999 5,10.930579 5,16.999999 5,23.06942 9.9305795,28.000001 16.000001,28 22.069421,28 27.000004,23.06942 27,16.999999 27,10.930579 22.069421,5.9999999 16.000001,5.9999999 Z"
         id="path22" />
      <path
         style="fill:#1abc9c;fill-opacity:1"
         d="M 16.000001,4.9999999 C 9.9305795,4.9999999 5,9.930579 5,15.999999 5,22.06942 9.9305795,27.000001 16.000001,27 22.069421,27 27.000004,22.06942 27,15.999999 27,9.930579 22.069421,4.9999999 16.000001,4.9999999 Z"
         id="path24" />
      <path
         style="opacity:0.1;fill:#ffffff"
         d="M 16,5 C 9.9305785,5 5,9.93058 5,16 5,16.168891 5.017837,16.332954 5.025391,16.5 5.2893029,10.663942 10.09947,6 16,6 21.900529,6 26.710697,10.663942 26.974609,16.5 26.982163,16.332954 27,16.168891 27,16 27,9.93058 22.06942,5 16,5 Z"
         id="path26" />
      <path
         style="opacity:0.2;fill:none;stroke:#000000;stroke-width:3;stroke-linecap:round;stroke-linejoin:round"
         d="M 16,16.99985 27.5,5.4998496"
         id="path28" />
      <path
         style="fill:none;stroke:#e4e4e4;stroke-width:3;stroke-linecap:round;stroke-linejoin:round"
         d="M 16,16 27.5,4.5"
         id="path30" />
      <path
         style="opacity:0.2;fill:none;stroke:#000000;stroke-width:3;stroke-linecap:round;stroke-linejoin:round"
         d="m 9.5,12.49985 6.5,4.5"
         id="path32" />
      <path
         style="fill:none;stroke:#e4e4e4;stroke-width:3;stroke-linecap:round;stroke-linejoin:round"
         d="M 9.5,11.5 16,16"
         id="path34" />
      <path
         style="opacity:0.2"
         d="m 16,14 c -1.655296,0 -3,1.344703 -3,3 0,1.655296 1.344704,3 3,3 1.655296,0 3,-1.344704 3,-3 0,-1.655297 -1.344704,-3 -3,-3 z"
         id="path36" />
      <path
         style="fill:#4f4f4f"
         d="m 16,13 c -1.655296,0 -3,1.344703 -3,3 0,1.655296 1.344704,3 3,3 1.655296,0 3,-1.344704 3,-3 0,-1.655297 -1.344704,-3 -3,-3 z"
         id="path38" />
    </g>
  </g>
</svg>
